<?xml version="1.0" standalone="no"?>
<!DOCTYPE svg PUBLIC "-//W3C//DTD SVG 20010904//EN"
 "http://www.w3.org/TR/2001/REC-SVG-20010904/DTD/svg10.dtd">
<svg version="1.0" xmlns="http://www.w3.org/2000/svg"
 width="473.000000pt" height="464.000000pt" viewBox="0 0 473.000000 464.000000"
 preserveAspectRatio="xMidYMid meet">

<g transform="translate(0.000000,464.000000) scale(0.100000,-0.100000)"
fill="#000000" stroke="none">
<path d="M2040 4421 c0 -6 -7 -7 -17 -4 -11 5 -14 3 -8 -6 7 -13 -5 -11 -55 7
-12 5 -13 3 -3 -9 10 -13 3 -25 -46 -76 -76 -78 -131 -161 -146 -221 -9 -37
-18 -50 -43 -63 -17 -9 -29 -19 -25 -23 3 -3 -1 -6 -10 -6 -10 0 -14 -6 -11
-14 3 -8 -4 -16 -20 -20 -14 -3 -26 -12 -26 -19 0 -7 -29 -41 -65 -77 -35 -36
-71 -83 -81 -105 -9 -22 -19 -47 -23 -55 -4 -7 0 -34 10 -60 22 -58 38 -146
43 -240 3 -41 10 -97 17 -123 9 -34 10 -54 3 -65 -6 -10 -9 -46 -8 -82 2 -44
-4 -84 -17 -123 -10 -31 -19 -67 -19 -80 0 -12 -11 -53 -25 -92 -29 -82 -30
-111 -10 -185 8 -30 24 -88 35 -129 11 -41 16 -77 12 -80 -40 -27 -3 -89 75
-127 47 -24 71 -29 128 -29 39 0 80 4 93 8 19 7 22 5 22 -17 0 -14 6 -29 14
-33 7 -4 26 -63 41 -130 l28 -123 -24 -19 c-13 -10 -69 -55 -123 -100 l-99
-80 -56 48 c-117 101 -253 171 -396 202 -93 21 -284 15 -380 -10 -315 -84
-552 -330 -621 -643 -23 -106 -21 -282 6 -383 124 -477 617 -753 1080 -603
154 49 301 149 399 270 89 109 161 270 180 396 l6 47 165 5 c98 3 173 10 185
17 29 17 70 63 90 101 l16 34 62 -7 c34 -4 70 -14 79 -22 12 -11 28 -13 55 -8
21 3 54 7 74 8 20 2 44 9 53 16 9 7 16 10 16 6 0 -4 -10 -15 -22 -25 -17 -13
-25 -15 -30 -7 -5 7 -8 2 -8 -13 0 -14 5 -32 10 -40 11 -18 10 -19 127 82 63
53 103 80 134 88 88 24 159 75 159 116 0 40 -20 45 -106 29 -85 -17 -180 -7
-190 20 -3 8 -12 11 -20 8 -8 -3 -14 -1 -14 5 0 5 -12 13 -26 16 -15 4 -24 13
-22 21 3 13 703 465 720 465 5 0 6 -11 2 -24 -4 -16 -1 -27 9 -33 11 -6 57
-164 57 -197 0 -3 -16 -12 -35 -20 -55 -23 -172 -102 -227 -154 -110 -103
-196 -245 -240 -397 -30 -104 -33 -324 -5 -424 46 -169 102 -265 227 -392 171
-173 359 -251 603 -250 472 2 840 373 839 846 0 393 -253 717 -643 822 -70 19
-275 24 -365 10 l-51 -8 -15 88 c-11 62 -13 92 -6 101 8 9 8 19 0 35 -17 33
-64 317 -58 343 5 17 18 26 49 34 73 19 84 26 91 64 9 45 -1 62 -71 128 -148
138 -175 159 -83 63 l95 -98 -160 143 c-184 164 -231 210 -160 155 28 -21 64
-50 81 -64 17 -14 -6 9 -50 52 -153 148 -170 159 -227 144 -22 -5 -36 1 -76
33 -28 22 -53 37 -57 33 -3 -3 -6 -2 -6 4 0 6 -36 16 -80 24 -44 7 -80 16 -80
20 0 4 -9 9 -21 12 -12 3 -18 10 -14 16 3 6 1 11 -5 11 -17 0 -144 61 -151 73
-4 5 -22 15 -40 22 -44 15 -122 73 -142 105 -18 30 -47 141 -47 180 0 15 -7
33 -15 40 -8 7 -14 24 -13 39 1 14 -4 36 -10 47 -6 12 -9 24 -5 27 3 4 1 12
-5 19 -5 7 -15 32 -22 56 -6 24 -22 53 -36 64 -30 27 -31 40 -1 38 44 -4 49
-1 46 33 -2 18 0 38 5 45 4 7 5 26 1 42 -3 16 -1 38 5 49 8 16 7 24 -9 40 -10
10 -25 21 -32 23 -11 4 -11 9 4 25 23 27 22 37 -12 75 -15 18 -36 48 -45 65
-30 59 -136 163 -136 134z m133 -1276 c9 -19 35 -46 57 -60 22 -14 40 -30 40
-36 0 -5 6 -9 13 -8 20 4 80 -12 105 -27 12 -8 22 -12 22 -8 0 4 7 1 15 -6 12
-10 15 -10 15 0 0 10 3 10 15 0 8 -6 24 -13 37 -15 13 -1 50 -9 83 -18 79 -21
148 -30 263 -36 6 -1 12 -12 12 -24 0 -37 33 -61 74 -54 30 5 33 3 29 -14 -6
-23 5 -24 34 -4 20 14 22 14 28 -5 6 -19 25 -28 25 -12 0 4 4 13 9 21 7 11 14
10 40 -8 l31 -22 0 23 c-1 13 -7 41 -15 63 -8 21 -13 40 -12 41 4 4 372 -336
375 -346 2 -5 -2 -10 -8 -10 -8 0 -11 -10 -7 -29 6 -28 4 -30 -41 -39 -26 -6
-68 -13 -94 -17 -48 -7 -48 -7 -48 -46 0 -32 4 -41 24 -49 25 -9 42 -28 33
-36 -5 -6 -683 -159 -728 -166 -19 -2 -25 2 -27 22 -2 14 -12 55 -23 91 -10
36 -19 83 -19 103 0 62 -29 134 -64 158 -17 12 -34 27 -38 34 -4 7 -27 22 -50
34 -23 12 -65 41 -93 66 -29 24 -56 44 -60 44 -13 0 -130 81 -138 96 -10 18 1
76 13 69 10 -6 24 90 15 104 -3 6 -1 20 5 31 6 11 13 42 15 68 2 26 4 50 4 55
2 17 19 4 34 -28z m694 -247 c-3 -8 -6 -5 -6 6 -1 11 2 17 5 13 3 -3 4 -12 1
-19z m-1157 -505 c-49 -22 -114 -28 -150 -13 -16 7 -30 15 -30 19 0 3 49 7
108 8 105 2 106 1 72 -14z m333 -90 c7 2 36 -7 65 -20 29 -13 57 -21 62 -18 5
3 24 -10 44 -29 30 -28 36 -40 36 -74 0 -35 -4 -43 -22 -47 -141 -35 -230 -51
-233 -41 -9 24 -65 256 -65 266 0 5 23 -1 51 -15 28 -15 56 -24 62 -22z m1180
-3 c-28 -11 -607 -140 -630 -140 -42 0 15 15 303 79 295 66 380 82 327 61z
m132 -62 c15 -67 34 -52 -355 -297 l-365 -230 -12 32 c-15 40 -16 60 -3 52 13
-8 13 -5 -5 46 -9 24 -12 45 -7 47 5 1 6 21 2 45 -4 23 -11 70 -14 104 l-7 61
73 17 c40 8 204 44 363 80 160 35 298 64 307 64 10 1 20 -8 23 -21z m-145
-203 c0 -2 -10 -9 -22 -15 -22 -11 -22 -10 -4 4 21 17 26 19 26 11z m-936
-102 c9 -48 30 -135 46 -193 15 -58 31 -126 35 -152 6 -45 5 -47 -32 -72 l-37
-26 -26 25 c-30 28 -70 45 -110 45 -33 0 -24 -23 -89 237 -23 89 -41 166 -41
171 0 8 173 49 216 51 18 1 23 -9 38 -86z m886 73 c0 -8 -511 -328 -516 -323
-8 7 67 57 301 199 217 132 215 131 215 124z m-1186 -261 c27 -108 46 -198 44
-201 -6 -6 -137 -34 -160 -34 -12 0 -28 24 -52 74 -19 41 -51 100 -71 131 -22
33 -34 60 -29 65 16 15 209 159 214 160 3 0 27 -88 54 -195z m1581 12 c14 -65
25 -130 24 -145 -1 -15 -16 45 -35 133 -18 88 -33 167 -33 175 1 26 19 -40 44
-163z m-1506 24 c11 -47 21 -94 20 -105 -1 -20 -59 187 -58 209 0 24 18 -27
38 -104z m-1060 32 c-1 -32 -4 -87 -8 -123 l-6 -65 -33 114 c-36 123 -35 131
21 131 26 0 27 -1 26 -57z m111 42 c0 -17 -68 -331 -77 -355 -3 -10 -10 -2
-19 23 -10 28 -12 75 -7 192 l6 155 49 0 c36 0 48 -4 48 -15z m108 -9 c1 -2
-21 -97 -49 -212 -41 -165 -57 -215 -77 -236 -30 -33 -38 -29 -47 20 -4 27 7
96 39 242 26 112 46 205 46 206 0 3 84 -16 88 -20z m-269 -148 c33 -114 40
-156 35 -185 -7 -37 -8 -36 -91 131 -45 92 -83 172 -83 176 0 11 83 39 91 31
4 -3 26 -72 48 -153z m337 126 c22 -9 40 -17 42 -19 1 -1 -25 -64 -59 -141
-42 -95 -72 -150 -96 -174 -20 -19 -34 -28 -31 -20 3 8 25 95 49 193 24 97 46
177 50 177 4 0 24 -7 45 -16z m-401 -194 c78 -156 95 -198 95 -235 0 -25 -3
-45 -7 -45 -31 1 -81 73 -168 242 l-96 187 38 20 c21 11 39 20 40 21 2 0 46
-85 98 -190z m495 145 c17 -9 30 -19 30 -23 0 -4 -38 -47 -85 -97 l-85 -90 36
80 c20 44 42 95 49 113 16 37 16 37 55 17z m-577 -207 c42 -82 74 -148 71
-148 -23 0 -89 66 -164 165 -50 64 -90 120 -90 124 1 3 17 18 37 33 l36 28 17
-28 c9 -15 51 -93 93 -174z m662 142 l28 -30 -24 -19 c-13 -10 -80 -64 -149
-119 -69 -55 -126 -99 -128 -97 -2 1 3 18 11 36 13 32 212 259 226 259 4 0 20
-13 36 -30z m-782 -111 c37 -48 67 -90 67 -93 0 -6 -171 104 -193 124 -4 4 4
22 19 39 15 18 30 29 34 24 4 -4 37 -47 73 -94z m3047 -69 c0 -66 -3 -120 -8
-120 -7 0 -69 209 -65 220 1 3 17 8 35 11 18 4 34 7 36 8 1 0 2 -53 2 -119z
m107 112 c8 -5 1 -56 -30 -195 -26 -120 -44 -184 -51 -177 -14 14 -20 152 -11
274 l7 106 36 0 c21 0 42 -4 49 -8z m107 -22 c4 -4 -14 -100 -40 -211 -42
-174 -53 -209 -78 -238 l-30 -33 -13 37 c-11 33 -8 57 34 251 l47 215 36 -6
c19 -4 39 -10 44 -15z m-2387 -10 c12 -18 1 -27 -122 -117 -88 -64 -147 -100
-171 -104 -34 -6 -35 -5 -17 12 40 39 279 229 288 229 6 0 16 -9 22 -20z
m2097 -32 c8 -29 26 -94 41 -145 16 -58 25 -110 23 -140 l-3 -48 -32 61 c-28
54 -73 242 -73 306 0 39 29 16 44 -34z m-2977 -46 c66 -44 132 -97 148 -118
34 -44 48 -48 -171 49 -90 39 -164 75 -164 80 0 18 46 76 57 72 7 -2 65 -40
130 -83z m3377 48 c14 -14 -110 -282 -148 -319 l-32 -31 48 193 c26 105 47
193 48 194 0 4 75 -29 84 -37z m-513 -126 c16 -70 27 -129 25 -131 -4 -5 -116
211 -116 224 0 9 53 44 58 38 2 -1 16 -60 33 -131z m-1941 85 c24 -45 21 -50
-40 -83 -24 -13 -165 -46 -198 -46 -12 0 200 167 215 170 2 0 12 -18 23 -41z
m2532 -1 c16 -12 10 -21 -67 -103 -93 -99 -93 -99 -21 58 38 83 39 83 88 45z
m-620 -151 c42 -83 79 -160 82 -171 14 -44 -61 27 -150 144 l-94 122 36 29
c20 16 40 29 43 29 3 0 41 -69 83 -153z m-2832 49 c126 -56 198 -94 215 -113
13 -15 25 -31 25 -34 0 -4 -16 -9 -36 -12 -31 -5 -70 7 -233 75 -108 44 -199
83 -203 87 -8 8 21 81 33 81 5 0 94 -38 199 -84z m1330 64 c0 -5 -6 -10 -13
-10 -7 0 -19 -16 -27 -35 -13 -32 -17 -35 -56 -35 -37 0 -43 3 -48 26 -9 34
-5 37 57 50 68 15 87 16 87 4z m2195 -20 c18 -19 25 -34 19 -39 -27 -26 -298
-230 -302 -227 -16 17 212 296 243 296 6 0 24 -14 40 -30z m-3186 -43 c1 -16
-3 -26 -9 -22 -5 3 -10 25 -9 48 0 33 2 38 9 22 5 -11 9 -33 9 -48z m1202 47
c11 -14 10 -18 -6 -30 -25 -19 -39 -18 -31 2 3 9 6 22 6 30 0 19 14 18 31 -2z
m-596 -14 c-3 -5 -11 -10 -16 -10 -6 0 -7 5 -4 10 3 6 11 10 16 10 6 0 7 -4 4
-10z m-461 -41 c-21 -36 -48 -52 -38 -22 8 22 46 65 52 58 2 -2 -4 -19 -14
-36z m2246 -46 c36 -47 69 -92 74 -100 4 -9 -37 15 -93 53 -55 38 -101 72
-101 75 0 10 41 59 48 59 4 -1 36 -39 72 -87z m-1365 47 c18 -20 17 -20 -19
-20 -34 0 -36 2 -26 20 6 11 14 20 19 20 4 0 16 -9 26 -20z m2255 -61 c0 -14
-335 -252 -368 -261 -54 -15 -62 -9 -46 32 11 27 56 67 187 167 l172 133 28
-32 c15 -18 27 -35 27 -39z m-3678 -20 c95 -39 175 -73 177 -74 1 -2 -13 -7
-34 -11 -25 -4 -83 4 -191 26 -126 27 -154 36 -154 50 0 33 13 80 21 80 5 0
86 -32 181 -71z m272 35 c9 -8 16 -20 16 -25 0 -16 -36 8 -54 36 -17 26 -17
26 3 16 10 -6 27 -18 35 -27z m606 12 c-14 -13 -41 -27 -60 -30 -32 -6 -31 -4
20 23 67 37 71 37 40 7z m900 -7 c0 -12 -47 -11 -55 0 -9 15 28 31 42 19 7 -6
13 -14 13 -19z m-1398 -31 c-10 -22 -11 -21 -11 12 -1 26 2 31 11 22 8 -8 8
-17 0 -34z m41 15 c5 -26 4 -26 -9 -8 -16 22 -18 35 -5 35 5 0 11 -12 14 -27z
m357 3 c-25 -13 -67 -26 -95 -30 -44 -6 -48 -5 -35 9 14 13 120 42 160 44 8 0
-5 -10 -30 -23z m2015 -72 c101 -69 177 -137 163 -148 -1 -2 -82 32 -178 75
-110 49 -174 83 -172 91 8 32 44 78 56 71 6 -5 65 -45 131 -89z m-2315 61 c-7
-8 -17 -15 -23 -15 -5 0 -2 9 8 20 21 23 35 19 15 -5z m1064 17 c2 -4 -8 -8
-22 -7 -21 0 -27 -5 -26 -22 0 -12 -3 -20 -8 -17 -10 6 -11 38 -1 47 9 10 51
9 57 -1z m-674 -27 c-13 -14 -26 -22 -29 -19 -3 3 5 14 19 24 34 27 38 25 10
-5z m-515 -25 c8 -13 -1 -13 -26 0 -10 6 -19 15 -19 21 0 11 35 -5 45 -21z
m259 15 c-10 -8 -32 -14 -49 -14 l-30 1 30 13 c17 8 39 14 49 15 20 0 20 0 0
-15z m291 -5 c-10 -11 -23 -20 -28 -20 -6 0 -2 9 8 20 10 11 23 20 28 20 6 0
2 -9 -8 -20z m140 10 c8 -13 -6 -17 -78 -24 -58 -5 -59 -4 -41 15 12 14 30 19
65 19 26 0 51 -5 54 -10z m490 -9 c-3 -6 -11 -11 -16 -11 -5 0 -4 6 3 14 14
16 24 13 13 -3z m645 4 c-7 -8 -17 -15 -22 -15 -6 0 -5 7 2 15 7 8 17 15 22
15 6 0 5 -7 -2 -15z m-1366 -6 c-3 -6 -1 -15 6 -19 15 -9 -73 -30 -125 -30
-44 0 -45 11 -3 29 61 27 134 39 122 20z m2904 -34 l22 -45 -138 -66 c-119
-57 -252 -100 -224 -72 15 15 307 228 313 228 3 0 15 -20 27 -45z m-3400 5
c18 -29 -3 -24 -22 5 -11 16 -12 23 -3 20 7 -3 18 -14 25 -25z m332 5 c-28
-16 -80 -21 -64 -6 10 10 39 18 69 19 17 1 17 -1 -5 -13z m-85 -5 c-3 -5 -18
-10 -33 -9 l-27 1 25 8 c35 11 42 11 35 0z m-625 -32 l105 -23 -95 -12 c-52
-6 -110 -12 -127 -12 -32 -1 -33 0 -33 40 0 38 2 41 23 36 12 -3 69 -16 127
-29z m1468 16 c-9 -10 -21 -13 -29 -8 -9 5 -8 9 7 15 31 12 39 10 22 -7z
m-1008 2 c0 -2 -8 -10 -17 -17 -16 -13 -17 -12 -4 4 13 16 21 21 21 13z m937
-16 c9 0 13 -6 10 -14 -3 -8 1 -17 9 -20 8 -3 14 -13 14 -21 0 -9 5 -13 10
-10 6 3 13 -1 16 -9 3 -9 12 -16 19 -16 8 0 17 -4 20 -10 4 -6 -25 -10 -79
-10 l-86 0 0 59 c0 54 2 60 23 63 12 2 24 0 25 -4 2 -5 11 -8 19 -8z m313 0
c-6 -11 -15 -20 -20 -20 -5 0 -14 9 -20 20 -10 18 -8 20 20 20 28 0 30 -2 20
-20z m1175 -84 c83 -37 155 -72 162 -79 6 -7 15 -24 18 -39 7 -26 5 -28 -26
-28 -29 1 -399 146 -416 164 -4 3 2 23 12 45 l17 39 42 -18 c22 -9 109 -48
191 -84z m249 55 c19 -36 23 -56 17 -77 -4 -16 -10 -23 -14 -17 -8 13 -36 143
-31 143 2 0 15 -22 28 -49z m-2504 29 c0 -5 -4 -10 -10 -10 -5 0 -10 5 -10 10
0 6 5 10 10 10 6 0 10 -4 10 -10z m900 -28 c0 -33 -14 -43 -35 -28 -19 14 -19
15 -1 35 20 22 36 19 36 -7z m1660 -17 c1 -11 2 -29 1 -40 -2 -38 -21 7 -21
50 1 41 16 33 20 -10z m-2815 25 c-3 -5 -18 -10 -33 -10 -21 0 -24 2 -12 10
20 13 53 13 45 0z m119 1 c3 -5 -2 -8 -12 -7 -11 1 -16 -6 -15 -18 1 -13 -2
-15 -10 -7 -7 7 -6 15 3 26 14 17 26 19 34 6z m1146 -13 c13 -17 15 -25 7 -30
-24 -15 -37 -8 -37 22 0 36 6 37 30 8z m-1341 3 c22 -14 -5 -23 -46 -15 -31 6
-34 8 -18 15 27 10 47 10 64 0z m821 -23 c0 -60 5 -60 -231 -43 -118 9 -218
20 -224 26 -5 6 -4 9 5 10 8 0 87 8 175 18 88 10 186 19 218 20 l57 1 0 -32z
m995 12 c-10 -11 -23 -20 -28 -20 -6 0 -2 9 8 20 10 11 23 20 28 20 6 0 2 -9
-8 -20z m1233 -17 c-6 -16 -20 -37 -30 -48 -30 -32 -23 8 8 44 32 38 37 39 22
4z m474 -28 l3 -29 -122 -16 c-68 -9 -120 -14 -117 -11 3 3 53 29 112 57 112
53 118 53 124 -1z m-3602 35 c31 -9 36 -7 -165 -65 -88 -25 -167 -48 -176 -51
-13 -4 -18 5 -24 42 -3 25 -4 49 0 52 18 19 317 37 365 22z m150 -10 c13 -9
13 -10 0 -9 -8 0 -24 4 -35 9 l-20 9 20 0 c11 0 27 -4 35 -9z m-27 -17 c23 -6
22 -15 -7 -42 -16 -15 -96 -45 -228 -87 -111 -35 -206 -64 -210 -64 -8 0 -33
78 -27 84 2 2 94 31 204 63 183 55 215 61 268 46z m292 7 c3 -5 -1 -10 -10
-10 -9 0 -13 5 -10 10 3 6 8 10 10 10 2 0 7 -4 10 -10z m2200 -103 l150 -62
-45 -6 c-41 -6 -121 8 -328 56 -20 5 -23 10 -17 38 14 71 12 68 53 51 20 -8
105 -43 187 -77z m213 48 c-3 -3 -13 7 -23 22 l-17 28 23 -22 c12 -12 20 -25
17 -28z m-2664 21 c-5 -14 -34 -31 -34 -20 0 8 24 33 32 34 4 0 5 -6 2 -14z
m241 4 c7 -12 -12 -12 -40 0 -18 8 -17 9 7 9 15 1 30 -3 33 -9z m55 0 c12 -8
11 -10 -7 -10 -12 0 -25 5 -28 10 -8 13 15 13 35 0z m123 -7 c-18 -2 -48 -2
-65 0 -18 2 -4 4 32 4 36 0 50 -2 33 -4z m2416 -43 c1 -13 0 -13 -9 0 -5 8 -9
24 -9 35 l0 20 9 -20 c5 -11 9 -27 9 -35z m-42 8 c-3 -7 -5 -2 -5 12 0 14 2
19 5 13 2 -7 2 -19 0 -25z m-2757 18 c0 -2 -11 -11 -25 -20 -14 -9 -25 -12
-25 -6 0 6 10 15 23 20 27 11 27 11 27 6z m2860 -6 c0 -5 -10 -15 -22 -21 -23
-12 -23 -12 -4 10 21 23 26 26 26 11z m23 -28 c-3 -12 -10 -22 -15 -22 -5 0
-7 3 -5 8 2 4 7 16 11 26 9 25 17 16 9 -12z m537 16 c0 -7 3 -30 6 -51 l7 -38
-94 6 c-52 3 -143 8 -204 11 l-110 6 40 20 c24 13 89 28 165 38 159 22 190 23
190 8z m-3390 -23 c0 -14 -4 -25 -9 -25 -4 0 -6 11 -3 25 2 14 6 25 8 25 2 0
4 -11 4 -25z m37 -6 c-8 -21 -13 -26 -15 -15 -2 10 2 23 8 31 18 22 20 18 7
-16z m53 16 c6 -8 10 -19 8 -24 -1 -5 -11 2 -21 15 -19 26 -8 34 13 9z m40 -6
c0 -6 -4 -7 -10 -4 -5 3 -10 11 -10 16 0 6 5 7 10 4 6 -3 10 -11 10 -16z m180
-66 c52 -47 123 -113 158 -145 l63 -59 -26 -30 c-27 -33 -115 -109 -125 -109
-4 0 -46 55 -95 121 -79 109 -124 193 -111 206 3 3 66 -55 140 -128 75 -72
139 -130 141 -127 3 3 -64 73 -149 155 -96 92 -157 159 -161 176 -7 26 -5 27
31 27 35 0 49 -9 134 -87z m15 62 c37 -15 265 -162 265 -171 0 -13 -42 -74
-51 -74 -7 0 -197 168 -284 252 -20 19 -20 19 10 12 17 -4 44 -12 60 -19z
m331 8 c-2 -10 -7 -28 -11 -40 -3 -13 -11 -23 -16 -23 -19 0 -274 63 -289 71
-9 5 55 9 153 9 156 0 168 -1 163 -17z m-767 -9 c-7 -8 -26 -22 -43 -31 l-31
-15 29 31 c31 32 71 46 45 15z m81 -20 c0 -37 -23 -78 -184 -327 l-56 -87 -35
22 c-19 13 -35 27 -35 31 0 22 238 362 265 378 41 26 45 24 45 -17z m135 -49
c3 -11 16 -109 31 -219 21 -165 24 -200 12 -207 -16 -11 -78 -12 -78 -1 -1 4
-11 101 -24 216 -22 193 -22 211 -8 248 l16 40 23 -28 c13 -16 26 -38 28 -49z
m-301 34 c-27 -28 -279 -169 -303 -169 -10 0 -57 79 -49 84 9 6 355 114 367
115 9 1 3 -11 -15 -30z m350 -44 l7 -30 -20 25 c-11 13 -22 35 -24 48 -4 23
-4 23 13 6 10 -11 20 -32 24 -49z m354 39 c59 -15 111 -31 116 -35 6 -6 3 -22
-7 -44 l-17 -35 -102 67 c-57 36 -105 67 -107 69 -8 7 11 4 117 -22z m2482 11
c-14 -8 -36 -14 -50 -14 -24 0 -24 0 -6 14 11 8 34 15 50 15 l31 -1 -25 -14z
m-85 -5 c-3 -5 -15 -10 -26 -10 -10 0 -19 5 -19 10 0 6 12 10 26 10 14 0 23
-4 19 -10z m-638 -22 c57 -13 103 -25 103 -29 0 -6 -233 -29 -239 -24 -8 9 11
75 22 75 6 0 58 -10 114 -22z m-2413 0 c-45 -78 -208 -308 -218 -308 -7 0 -25
13 -41 30 l-28 30 100 107 c55 60 118 118 139 130 44 26 59 29 48 11z m156 -5
c-1 -10 -7 -29 -15 -43 l-14 -25 -1 27 c0 32 9 58 21 58 5 0 9 -8 9 -17z
m2896 -8 c-26 -19 -42 -19 -26 0 7 8 20 15 29 15 13 -1 13 -3 -3 -15z m307 -1
l188 -6 -3 -47 c-2 -34 -7 -46 -18 -44 -8 1 -105 7 -215 13 -167 10 -205 16
-232 32 -18 11 -33 23 -33 27 0 15 66 40 95 36 17 -3 115 -7 218 -11z m-583
-14 c0 -5 -7 -7 -15 -4 -8 4 -15 8 -15 10 0 2 7 4 15 4 8 0 15 -4 15 -10z
m-40 -10 c11 -7 4 -10 -25 -10 -22 0 -47 5 -55 10 -11 7 -4 10 25 10 22 0 47
-5 55 -10z m-2371 -189 c61 -193 60 -176 7 -194 -25 -9 -47 -15 -47 -14 -1 1
-13 92 -28 201 l-27 199 27 -33 c18 -21 43 -79 68 -159z m2275 176 l39 -12
-181 -52 c-99 -29 -187 -53 -195 -53 -18 0 -29 90 -12 96 13 4 251 31 285 32
14 0 42 -5 64 -11z m-2832 -74 c-109 -121 -104 -118 -130 -83 -12 16 -22 33
-22 37 0 6 201 118 219 122 2 1 -28 -34 -67 -76z m300 35 c-4 -47 -111 -318
-128 -325 -20 -7 -86 27 -80 43 8 22 200 323 206 324 3 0 4 -19 2 -42z m2689
32 c5 0 9 -4 9 -9 0 -4 -11 -6 -25 -3 -14 2 -25 9 -25 14 0 6 7 7 16 4 9 -3
20 -6 25 -6z m253 -5 c16 -12 17 -15 4 -15 -8 0 -21 7 -28 15 -16 19 -1 19 24
0z m-2870 -180 c22 -226 25 -205 -35 -205 l-51 0 5 53 c4 28 9 97 12 152 6 93
32 193 46 177 3 -4 13 -83 23 -177z m2609 156 c4 -4 -5 -19 -20 -33 -20 -19
-82 -43 -218 -86 -104 -33 -198 -62 -209 -64 -14 -2 -22 7 -32 36 -8 22 -12
41 -10 44 3 2 94 30 203 62 153 46 207 58 238 54 22 -4 43 -9 48 -13z m25 -21
c-7 -11 -18 -22 -26 -25 -8 -3 -6 4 5 20 21 29 38 34 21 5z m233 10 c5 0 9 -4
9 -9 0 -4 -11 -6 -25 -3 -14 2 -25 9 -25 14 0 6 7 7 16 4 9 -3 20 -6 25 -6z
m80 -16 c17 -8 29 -18 26 -20 -8 -8 -56 7 -68 22 -16 19 3 19 42 -2z m184 1
c66 -3 144 -8 174 -12 l53 -6 -6 -45 c-3 -25 -8 -47 -10 -49 -9 -10 -302 70
-342 93 -51 30 -55 38 -16 30 15 -3 81 -8 147 -11z m-305 -43 c0 -7 -4 -10
-10 -7 -5 3 -10 16 -10 28 0 18 2 19 10 7 5 -8 10 -21 10 -28z m60 22 c22 -6
271 -223 323 -282 18 -20 18 -21 -4 -51 -13 -17 -27 -31 -32 -31 -5 0 -78 66
-163 147 -123 118 -157 156 -168 191 -17 47 -21 45 44 26z m-230 -9 c-33 -19
-50 -18 -26 0 11 8 27 15 35 15 10 -1 7 -6 -9 -15z m41 -42 c-9 -15 -10 -12
-10 17 0 29 1 32 10 18 7 -12 7 -24 0 -35z m99 9 c0 -13 -3 -12 -15 4 -19 25
-19 40 0 24 8 -7 15 -20 15 -28z m-201 12 c-7 -8 -26 -22 -43 -30 l-31 -15 33
30 c34 33 65 44 41 15z m75 -30 c-5 -35 -33 -88 -116 -218 -61 -94 -114 -175
-118 -180 -8 -8 -80 29 -80 40 0 2 54 85 120 184 94 141 128 184 157 199 21
11 39 20 41 21 2 0 0 -21 -4 -46z m66 16 c-6 -12 -14 -19 -17 -17 -2 3 1 15 7
27 6 12 14 19 17 17 2 -3 -1 -15 -7 -27z m304 3 c16 -8 80 -48 143 -89 l114
-74 -18 -31 c-35 -59 -35 -59 -161 57 -64 59 -130 120 -147 136 l-30 28 35 -6
c19 -4 48 -13 64 -21z m-2789 -74 c37 -51 69 -97 71 -103 5 -13 -63 -50 -69
-38 -4 6 -25 72 -67 205 -5 15 -7 27 -5 27 2 0 33 -41 70 -91z m2254 45 c-27
-28 -286 -174 -309 -174 -3 0 -15 19 -27 43 l-21 42 187 61 c102 34 190 62
195 63 6 1 -6 -15 -25 -35z m321 -184 c12 -91 25 -190 30 -220 4 -30 7 -56 6
-57 -2 -2 -23 -6 -47 -9 l-45 -6 -23 224 c-22 214 -23 226 -6 258 l17 33 23
-29 c19 -24 27 -57 45 -194z m29 140 l11 -35 -25 30 c-27 33 -37 82 -11 55 7
-8 18 -31 25 -50z m361 34 c60 -14 111 -29 114 -32 5 -10 -22 -72 -32 -72 -10
1 -209 130 -200 130 4 0 57 -12 118 -26z m-3305 -114 c-6 -105 -9 -120 -24
-116 -9 3 -28 8 -42 11 l-27 7 47 113 c25 62 48 111 50 110 2 -2 0 -58 -4
-125z m2545 -45 c-61 -91 -114 -165 -118 -165 -5 0 -22 15 -40 33 l-31 32 102
108 c87 93 160 152 190 156 4 1 -42 -73 -103 -164z m236 95 c-15 -34 -15 -34
-16 -8 0 15 5 39 12 55 10 25 12 26 15 8 2 -12 -3 -36 -11 -55z m351 -124
c120 -118 120 -116 62 -157 l-27 -19 -91 124 c-76 103 -121 183 -121 214 0 8
48 -36 177 -162z m-380 85 c-4 -36 -104 -302 -123 -329 -1 -2 -23 6 -49 17
l-47 21 18 29 c11 15 60 92 109 170 50 77 92 141 94 141 2 0 1 -22 -2 -49z
m262 -156 c27 -82 47 -153 44 -157 -5 -10 -82 -33 -88 -26 -4 4 -55 361 -55
383 1 6 12 -3 26 -20 14 -18 44 -91 73 -180z m-579 105 c-45 -49 -85 -90 -89
-90 -8 0 -54 60 -49 64 5 5 213 116 217 116 2 0 -34 -40 -79 -90z m390 -118
c11 -100 20 -185 20 -187 0 -3 -22 -5 -50 -5 l-50 0 1 53 c1 118 18 264 35
307 10 25 20 38 21 30 1 -8 12 -97 23 -198z m255 3 c32 -44 62 -85 67 -92 7
-8 -2 -18 -30 -32 l-40 -20 -31 102 c-44 138 -45 144 -34 132 6 -5 36 -46 68
-90z m-340 -7 c-3 -40 -8 -97 -11 -126 l-6 -54 -36 7 c-21 4 -39 8 -41 10 -4
4 91 235 97 235 2 0 1 -33 -3 -72z"/>
</g>
</svg>
